<?xml version="1.0" encoding="UTF-8"?>
<!DOCTYPE svg PUBLIC "-//W3C//DTD SVG 1.1//EN" "http://www.w3.org/Graphics/SVG/1.1/DTD/svg11.dtd">
<svg xmlns="http://www.w3.org/2000/svg" version="1.1" width="300px" height="300px" style="shape-rendering:geometricPrecision; text-rendering:geometricPrecision; image-rendering:optimizeQuality; fill-rule:evenodd; clip-rule:evenodd" xmlns:xlink="http://www.w3.org/1999/xlink">
<g><path style="opacity:1" fill="#f2b37d" d="M 124.5,131.5 C 122.914,133.081 121.914,135.081 121.5,137.5C 122,138.5 122.5,139.5 123,140.5C 123.399,140.272 123.565,139.938 123.5,139.5C 124.338,139.842 124.672,140.508 124.5,141.5C 125.167,141.5 125.5,141.833 125.5,142.5C 126.134,143.947 127.301,144.613 129,144.5C 130.825,144.057 132.658,143.723 134.5,143.5C 135.5,143.5 136.5,143.5 137.5,143.5C 137.5,147.167 137.5,150.833 137.5,154.5C 131.167,154.5 124.833,154.5 118.5,154.5C 116.748,154.582 115.748,153.749 115.5,152C 118.719,146.982 118.052,142.649 113.5,139C 104.468,137.903 101.134,141.736 103.5,150.5C 103.5,151.833 103.5,153.167 103.5,154.5C 96.1667,154.5 88.8333,154.5 81.5,154.5C 80.5166,150.702 80.1832,146.702 80.5,142.5C 84.1642,142.36 87.6642,143.027 91,144.5C 97.5356,142.014 99.0356,137.68 95.5,131.5C 91.5379,128.953 87.5379,128.953 83.5,131.5C 82.5581,131.392 81.7247,131.059 81,130.5C 80.3333,125.5 80.3333,120.5 81,115.5C 89.8232,107.291 98.6565,99.7914 107.5,93C 109.167,92.3333 110.833,92.3333 112.5,93C 121,100.167 129.5,107.333 138,114.5C 139.875,119.875 139.875,125.209 138,130.5C 137.439,131.022 136.772,131.355 136,131.5C 132.008,128.951 128.174,128.951 124.5,131.5 Z"/></g>
<g><path style="opacity:1" fill="#f1d751" d="M 144.5,154.5 C 145.555,151.927 145.722,149.261 145,146.5C 143.644,145.62 142.144,145.286 140.5,145.5C 140.509,142.864 139.175,141.531 136.5,141.5C 134.182,141.997 131.848,142.33 129.5,142.5C 128.774,141.235 128.774,139.735 129.5,138C 130.599,135.964 131.932,134.131 133.5,132.5C 135.167,132.5 136.833,132.5 138.5,132.5C 138.414,133.496 138.748,134.329 139.5,135C 141.473,135.495 143.473,135.662 145.5,135.5C 145.707,128.071 145.707,120.738 145.5,113.5C 145.859,111.629 146.859,110.129 148.5,109C 155.681,103.348 162.848,97.8481 170,92.5C 179.268,99.7502 188.601,107.084 198,114.5C 198.986,120.354 199.819,126.188 200.5,132C 204.155,132.641 207.655,132.141 211,130.5C 212.711,130.439 214.044,131.106 215,132.5C 216.957,142.72 213.123,145.387 203.5,140.5C 202.252,141.04 201.085,141.707 200,142.5C 199.667,146.167 199.333,149.833 199,153.5C 198.333,154.167 197.667,154.833 197,155.5C 190.293,154.655 183.46,154.322 176.5,154.5C 176.467,151.164 177.134,147.997 178.5,145C 173.475,136.18 167.975,135.68 162,143.5C 162.19,146.585 163.024,149.585 164.5,152.5C 163.345,153.95 161.845,154.95 160,155.5C 154.928,154.529 149.762,154.195 144.5,154.5 Z"/></g>
<g><path style="opacity:1" fill="#b09b3b" d="M 145.5,113.5 C 145.707,120.738 145.707,128.071 145.5,135.5C 143.473,135.662 141.473,135.495 139.5,135C 138.748,134.329 138.414,133.496 138.5,132.5C 138.783,131.711 139.283,131.044 140,130.5C 140.333,125.5 140.667,120.5 141,115.5C 142.33,114.418 143.83,113.751 145.5,113.5 Z"/></g>
<g><path style="opacity:0.979" fill="#b5983a" d="M 133.5,132.5 C 131.932,134.131 130.599,135.964 129.5,138C 128.774,139.735 128.774,141.235 129.5,142.5C 128.368,143.354 127.035,143.354 125.5,142.5C 125.5,141.833 125.167,141.5 124.5,141.5C 124.672,140.508 124.338,139.842 123.5,139.5C 123.401,136.763 123.735,134.096 124.5,131.5C 127.592,130.648 130.592,130.982 133.5,132.5 Z"/></g>
<g><path style="opacity:0.994" fill="#ac9b3b" d="M 140.5,145.5 C 142.144,145.286 143.644,145.62 145,146.5C 145.722,149.261 145.555,151.927 144.5,154.5C 143.12,155.706 141.953,155.373 141,153.5C 140.503,150.854 140.336,148.187 140.5,145.5 Z"/></g>
<g><path style="opacity:0.368" fill="#e98852" d="M 103.5,150.5 C 104.451,151.919 104.784,153.585 104.5,155.5C 96.6484,155.825 88.9818,155.492 81.5,154.5C 88.8333,154.5 96.1667,154.5 103.5,154.5C 103.5,153.167 103.5,151.833 103.5,150.5 Z"/></g>
<g><path style="opacity:0.391" fill="#ee9560" d="M 134.5,143.5 C 135.568,142.566 136.901,142.232 138.5,142.5C 139.833,146.833 139.833,151.167 138.5,155.5C 131.646,155.824 124.979,155.491 118.5,154.5C 124.833,154.5 131.167,154.5 137.5,154.5C 137.5,150.833 137.5,147.167 137.5,143.5C 136.5,143.5 135.5,143.5 134.5,143.5 Z"/></g>
<g><path style="opacity:1" fill="#f1c84c" d="M 43.5,169.5 C 43.3347,173.182 43.5014,176.848 44,180.5C 47.2688,181.818 50.4355,181.818 53.5,180.5C 54.1663,176.979 54.8329,173.313 55.5,169.5C 57.7016,168.22 59.8683,168.22 62,169.5C 62.8246,179.342 62.658,189.009 61.5,198.5C 59.5,198.5 57.5,198.5 55.5,198.5C 55.5,194.5 55.5,190.5 55.5,186.5C 54.5,186.5 53.5,186.5 52.5,186.5C 51.1667,186.5 49.8333,186.5 48.5,186.5C 47.1155,185.199 45.6155,185.199 44,186.5C 43.5012,190.486 43.3345,194.486 43.5,198.5C 41.5,198.5 39.5,198.5 37.5,198.5C 36.5739,189.411 36.4073,180.078 37,170.5C 39.0164,168.392 41.1831,168.058 43.5,169.5 Z"/></g>
<g><path style="opacity:1" fill="#f1d04e" d="M 168.5,175.5 C 167.508,182.648 167.175,189.981 167.5,197.5C 165.5,197.5 163.5,197.5 161.5,197.5C 161.5,190.167 161.5,182.833 161.5,175.5C 160.167,175.5 158.833,175.5 157.5,175.5C 151.997,176.721 150.331,174.554 152.5,169C 160.493,168.5 168.493,168.334 176.5,168.5C 176.5,170.833 176.5,173.167 176.5,175.5C 173.833,175.5 171.167,175.5 168.5,175.5 Z"/></g>
<g><path style="opacity:0.89" fill="#f5be4b" d="M 157.5,175.5 C 158.833,175.5 160.167,175.5 161.5,175.5C 161.5,182.833 161.5,190.167 161.5,197.5C 163.5,197.5 165.5,197.5 167.5,197.5C 165.735,198.461 163.735,198.795 161.5,198.5C 160.508,191.352 160.175,184.019 160.5,176.5C 159.209,176.737 158.209,176.404 157.5,175.5 Z"/></g>
<g><path style="opacity:0.2" fill="#f26a2d" d="M 168.5,175.5 C 168.5,183.5 168.5,191.5 168.5,199.5C 165.941,199.802 163.607,199.468 161.5,198.5C 163.735,198.795 165.735,198.461 167.5,197.5C 167.175,189.981 167.508,182.648 168.5,175.5 Z"/></g>
<g><path style="opacity:0.999" fill="#f2d651" d="M 75.5,175.5 C 85.6582,176.168 90.3249,181.668 89.5,192C 84.4339,199.6 77.7672,201.267 69.5,197C 65.264,190.448 65.5973,184.115 70.5,178C 72.3146,177.243 73.9812,176.41 75.5,175.5 Z M 76.5,181.5 C 78.1703,181.751 79.6703,182.418 81,183.5C 81.6667,186.167 81.6667,188.833 81,191.5C 76.6135,194.389 74.1135,193.056 73.5,187.5C 73.9837,185.199 74.9837,183.199 76.5,181.5 Z"/></g>
<g><path style="opacity:1" fill="#f1b246" d="M 149.5,182.5 C 147.661,181.492 146.328,179.992 145.5,178C 141.514,177.501 137.514,177.334 133.5,177.5C 137.865,174.927 142.365,174.927 147,177.5C 148.094,179.078 148.928,180.745 149.5,182.5 Z"/></g>
<g><path style="opacity:0.89" fill="#f5ad42" d="M 252.5,175.5 C 256.361,176.079 259.027,178.079 260.5,181.5C 257.717,179.465 255.05,177.465 252.5,175.5 Z"/></g>
<g><path style="opacity:0.999" fill="#f1d551" d="M 100.5,175.5 C 103.545,175.342 106.379,176.009 109,177.5C 113.914,174.654 118.58,174.987 123,178.5C 124.586,185.057 124.92,191.724 124,198.5C 122.204,199.767 120.371,199.767 118.5,198.5C 117.671,193.533 117.171,188.533 117,183.5C 115.274,182.424 113.441,182.257 111.5,183C 112.471,188.072 112.805,193.238 112.5,198.5C 109.833,198.5 107.167,198.5 104.5,198.5C 105.397,193.86 105.564,189.194 105,184.5C 104.3,182.968 103.134,181.968 101.5,181.5C 100.67,187.138 100.17,192.804 100,198.5C 97.4522,199.417 94.9522,199.084 92.5,197.5C 92.6372,191.555 92.8039,185.222 93,178.5C 95.3785,177.033 97.8785,176.033 100.5,175.5 Z"/></g>
<g><path style="opacity:1" fill="#f2cd4e" d="M 133.5,177.5 C 137.514,177.334 141.514,177.501 145.5,178C 146.328,179.992 147.661,181.492 149.5,182.5C 152.248,188.834 150.248,191.501 143.5,190.5C 140.976,189.2 138.309,189.2 135.5,190.5C 135.624,191.107 135.957,191.44 136.5,191.5C 137.915,192.289 139.415,192.956 141,193.5C 146.676,190.989 149.01,192.656 148,198.5C 131.551,202.382 125.551,196.048 130,179.5C 130.816,178.177 131.983,177.511 133.5,177.5 Z M 142.5,183.5 C 140.5,184.833 138.5,184.833 136.5,183.5C 138.5,182.167 140.5,182.167 142.5,183.5 Z"/></g>
<g><path style="opacity:0.998" fill="#f2d450" d="M 186.5,175.5 C 196.674,175.341 201.341,180.341 200.5,190.5C 195.821,190.334 191.155,190.501 186.5,191C 188.017,192.508 189.851,193.342 192,193.5C 198.439,191.597 199.939,193.43 196.5,199C 180.462,201.082 175.295,194.582 181,179.5C 182.812,178.023 184.645,176.69 186.5,175.5 Z M 188.5,181.5 C 190.09,181.628 191.423,182.295 192.5,183.5C 190.5,184.833 188.5,184.833 186.5,183.5C 187.243,182.818 187.909,182.151 188.5,181.5 Z"/></g>
<g><path style="opacity:0.998" fill="#f2d651" d="M 209.5,175.5 C 213.15,175.358 216.65,176.025 220,177.5C 231.615,173.438 236.782,177.605 235.5,190C 235.167,192.833 234.833,195.667 234.5,198.5C 232.902,199.485 231.235,199.651 229.5,199C 228.693,193.917 228.193,188.75 228,183.5C 226.89,181.963 225.39,181.297 223.5,181.5C 223.808,187.425 223.475,193.259 222.5,199C 220.546,198.547 218.713,198.38 217,198.5C 216.667,193.5 216.333,188.5 216,183.5C 215.047,181.408 213.714,181.075 212,182.5C 211.667,187.833 211.333,193.167 211,198.5C 209.274,199.576 207.441,199.743 205.5,199C 204.354,191.914 204.188,184.747 205,177.5C 206.622,176.901 208.122,176.234 209.5,175.5 Z"/></g>
<g><path style="opacity:1" fill="#f1d551" d="M 252.5,175.5 C 255.05,177.465 257.717,179.465 260.5,181.5C 265.006,193.811 260.673,199.811 247.5,199.5C 247.663,201.857 247.497,204.19 247,206.5C 245,207.833 243,207.833 241,206.5C 240.5,196.506 240.334,186.506 240.5,176.5C 244.452,175.728 248.452,175.395 252.5,175.5 Z M 247.5,182.5 C 251.841,181.52 254.174,183.187 254.5,187.5C 254.238,192.446 251.904,194.113 247.5,192.5C 247.5,189.167 247.5,185.833 247.5,182.5 Z"/></g>
<g><path style="opacity:0.816" fill="#f6b44b" d="M 43.5,169.5 C 44.3213,172.641 44.8213,175.975 45,179.5C 47.7191,180.444 50.5525,180.777 53.5,180.5C 50.4355,181.818 47.2688,181.818 44,180.5C 43.5014,176.848 43.3347,173.182 43.5,169.5 Z"/></g>
<g><path style="opacity:0.071" fill="#f2742a" d="M 136.5,183.5 C 138.5,184.833 140.5,184.833 142.5,183.5C 143.043,183.56 143.376,183.893 143.5,184.5C 140.833,185.833 138.167,185.833 135.5,184.5C 135.624,183.893 135.957,183.56 136.5,183.5 Z"/></g>
<g><path style="opacity:0.845" fill="#f1aa42" d="M 48.5,186.5 C 47.3754,187.014 46.2087,187.347 45,187.5C 44.5012,191.486 44.3345,195.486 44.5,199.5C 41.9407,199.802 39.6074,199.468 37.5,198.5C 39.5,198.5 41.5,198.5 43.5,198.5C 43.3345,194.486 43.5012,190.486 44,186.5C 45.6155,185.199 47.1155,185.199 48.5,186.5 Z"/></g>
<g><path style="opacity:0.204" fill="#fb8236" d="M 143.5,190.5 C 140.941,190.198 138.607,190.532 136.5,191.5C 135.957,191.44 135.624,191.107 135.5,190.5C 138.309,189.2 140.976,189.2 143.5,190.5 Z"/></g>
<g><path style="opacity:0.393" fill="#f5853e" d="M 52.5,186.5 C 53.5,186.5 54.5,186.5 55.5,186.5C 55.5,190.5 55.5,194.5 55.5,198.5C 57.5,198.5 59.5,198.5 61.5,198.5C 59.3926,199.468 57.0593,199.802 54.5,199.5C 55.0008,194.847 54.3342,190.514 52.5,186.5 Z"/></g>
</svg>
